<!--?xml version="1.0" encoding="utf-8"?-->
<!-- Generator: Adobe Illustrator 18.0.0, SVG Export Plug-In . SVG Version: 6.00 Build 0)  -->

<svg version="1.1" id="_x32_" xmlns="http://www.w3.org/2000/svg" xmlns:xlink="http://www.w3.org/1999/xlink" x="0px" y="0px"
width="20px"
height="20px"
viewBox="0 0 512 512" style="width: 16px; height: 16px; opacity: 1;" xml:space="preserve">
<style type="text/css">
	.st0{fill:#4B4B4B;}
</style>
<g>
	<path class="st0" d="M458.047,168.92H172.669v-30.031c0-46.055,37.475-83.53,83.53-83.53c42.534,0,77.749,31.969,82.869,73.15
		h55.621C389.369,56.758,329.289,0,256.199,0c-76.58,0-138.889,62.308-138.889,138.889v30.031H53.953
		c-22.718,0-40.801,19.029-39.644,41.717l14.394,263.691C29.78,495.438,47.21,512,68.347,512h375.306
		c21.137,0,38.567-16.562,39.644-37.672l14.395-263.691C498.849,187.949,480.765,168.92,458.047,168.92z M276.618,341.82v57.459
		c0,9.893-8.095,17.988-17.988,17.988c-9.894,0-17.989-8.096-17.989-17.988V341.82c-11.579-6.383-19.517-18.561-19.517-32.717
		c0-20.713,16.792-37.506,37.506-37.506c20.713,0,37.505,16.793,37.505,37.506C296.135,323.26,288.197,335.438,276.618,341.82z" style="fill: rgb(75, 75, 75);"></path>
</g>
</svg>
